<?xml version="1.0" standalone="no"?>
<!DOCTYPE svg PUBLIC "-//W3C//DTD SVG 20010904//EN"
 "http://www.w3.org/TR/2001/REC-SVG-20010904/DTD/svg10.dtd">
<svg version="1.0" xmlns="http://www.w3.org/2000/svg"
 width="2248.000000pt" height="2248.000000pt" viewBox="0 0 2248.000000 2248.000000"
 preserveAspectRatio="xMidYMid meet">
<metadata>
Created by potrace 1.11, written by Peter Selinger 2001-2013
</metadata>
<g transform="translate(0.000000,2248.000000) scale(0.100000,-0.100000)"
fill="#000000" stroke="none">
<path d="M11067 19963 c-2 -1 -88 -4 -192 -8 -177 -5 -217 -8 -335 -21 -25 -2
-81 -7 -125 -10 -81 -5 -95 -6 -198 -18 -148 -18 -552 -81 -590 -92 -10 -3
-34 -8 -54 -10 -20 -3 -39 -6 -43 -9 -4 -2 -22 -7 -41 -10 -133 -23 -436 -100
-744 -189 -5 -1 -30 -8 -55 -15 -25 -7 -130 -42 -235 -78 -104 -36 -209 -71
-233 -79 -24 -7 -71 -25 -105 -40 -34 -15 -75 -32 -92 -39 -16 -7 -91 -39
-165 -70 -74 -31 -146 -62 -160 -68 -14 -6 -28 -10 -32 -9 -5 1 -8 -2 -8 -7 0
-5 -12 -12 -27 -16 -14 -3 -130 -58 -257 -122 -228 -114 -292 -148 -388 -204
-27 -16 -53 -29 -58 -29 -4 0 -10 -6 -13 -12 -5 -15 -10 -13 -169 92 -62 42
-122 81 -133 88 -17 10 -172 86 -260 127 -32 15 -229 84 -256 90 -9 2 -52 13
-95 24 -81 21 -157 36 -229 46 -23 3 -52 7 -65 10 -97 19 -494 25 -630 11 -41
-5 -88 -10 -105 -12 -16 -1 -30 -3 -30 -4 0 -1 -9 -3 -20 -4 -66 -8 -127 -19
-175 -31 -30 -7 -71 -16 -90 -20 -38 -6 -65 -13 -65 -15 0 -1 -7 -3 -15 -5 -8
-1 -35 -8 -60 -16 -25 -7 -49 -13 -55 -15 -5 -1 -44 -14 -85 -29 -41 -14 -79
-27 -85 -29 -5 -2 -19 -7 -30 -11 -11 -4 -53 -21 -92 -36 -40 -16 -81 -33 -90
-38 -10 -4 -49 -23 -88 -41 -38 -17 -77 -36 -85 -40 -8 -5 -46 -25 -83 -45
-105 -56 -359 -214 -377 -234 -3 -3 -27 -22 -55 -41 -27 -19 -61 -45 -75 -57
-14 -13 -28 -23 -32 -23 -3 0 -22 -15 -42 -32 -19 -18 -51 -46 -72 -63 -104
-83 -318 -298 -429 -430 -22 -26 -45 -53 -50 -59 -6 -6 -33 -40 -60 -76 -28
-36 -53 -67 -56 -70 -14 -12 -139 -200 -139 -209 0 -5 -4 -11 -8 -13 -8 -3
-165 -263 -170 -280 -1 -5 -24 -52 -50 -105 -48 -99 -131 -290 -136 -315 -2
-7 -8 -24 -13 -38 -29 -72 -85 -247 -85 -270 0 -3 -5 -16 -10 -30 -5 -14 -11
-32 -13 -40 -2 -8 -10 -45 -19 -83 -9 -37 -18 -81 -21 -97 -8 -50 -15 -84 -19
-108 -3 -13 -8 -53 -12 -90 -3 -37 -7 -69 -9 -72 -6 -10 -18 -228 -18 -330 -1
-164 10 -309 33 -455 5 -33 12 -78 16 -100 12 -81 71 -305 94 -360 4 -11 18
-49 31 -85 12 -36 32 -85 42 -110 11 -25 21 -47 22 -50 4 -19 102 -202 132
-248 21 -31 43 -68 50 -81 12 -22 111 -160 123 -171 3 -3 30 -34 60 -70 101
-119 257 -264 394 -365 24 -18 26 -23 16 -55 -6 -19 -13 -51 -16 -70 -3 -19
-8 -38 -11 -43 -2 -4 -7 -20 -9 -35 -3 -15 -17 -74 -30 -132 -14 -58 -27 -116
-30 -130 -2 -14 -9 -45 -14 -70 -5 -25 -12 -61 -15 -80 -4 -19 -11 -55 -16
-80 -15 -62 -18 -80 -24 -115 -3 -16 -12 -61 -20 -100 -20 -98 -46 -263 -50
-306 -1 -20 -5 -40 -8 -45 -3 -5 -8 -43 -11 -84 -4 -41 -9 -95 -11 -120 -15
-150 -21 -235 -30 -430 -11 -233 -12 -247 -19 -259 -4 -6 -2 -11 4 -11 6 0 9
-4 6 -9 -3 -5 -6 -35 -6 -67 0 -33 0 -66 -1 -74 -3 -196 -1 -422 4 -480 10
-112 17 -189 23 -245 3 -27 7 -70 10 -95 2 -25 6 -65 9 -90 3 -25 7 -67 9 -95
7 -73 17 -166 22 -200 3 -16 6 -48 8 -70 6 -65 17 -165 22 -188 2 -12 6 -48 9
-81 3 -33 13 -89 21 -125 8 -36 16 -75 19 -86 12 -62 18 -88 36 -165 11 -47
22 -93 24 -103 7 -32 75 -295 100 -387 3 -8 9 -35 16 -60 17 -71 17 -70 44
-160 15 -47 28 -92 30 -100 18 -74 69 -221 116 -337 22 -55 28 -70 39 -103 12
-34 98 -243 125 -305 7 -16 21 -48 31 -70 9 -22 18 -44 20 -50 7 -26 61 -151
107 -245 28 -58 51 -107 52 -110 1 -8 75 -153 94 -185 22 -36 193 -332 229
-395 14 -25 36 -62 49 -82 12 -21 23 -42 23 -48 0 -5 5 -10 10 -10 6 0 10 -6
10 -14 0 -7 7 -19 15 -26 8 -7 13 -16 10 -20 -3 -5 -2 -10 2 -12 5 -1 17 -19
27 -38 42 -76 237 -361 312 -455 14 -16 28 -34 32 -40 4 -5 43 -57 87 -115 44
-58 82 -107 85 -110 3 -3 17 -21 30 -40 24 -34 44 -60 65 -84 10 -11 88 -106
115 -139 41 -52 105 -122 205 -226 354 -367 515 -525 635 -624 74 -61 137
-114 140 -117 3 -3 30 -25 60 -50 30 -25 60 -50 66 -55 6 -6 31 -27 54 -46 23
-18 47 -39 54 -44 69 -62 193 -157 286 -220 63 -43 118 -83 122 -89 4 -6 8 -7
8 -2 0 5 10 1 23 -10 12 -11 42 -33 67 -49 25 -16 82 -55 127 -87 44 -32 85
-58 91 -58 5 0 17 -9 27 -20 10 -11 23 -20 30 -20 7 0 20 -9 30 -20 10 -11 24
-20 32 -20 7 0 13 -3 13 -7 0 -5 30 -24 68 -43 37 -19 69 -38 70 -42 2 -5 7
-8 12 -8 4 0 60 -29 124 -65 64 -36 118 -65 120 -65 2 0 37 -19 78 -43 87 -52
317 -165 483 -237 66 -29 143 -63 170 -75 28 -13 66 -30 85 -38 19 -8 55 -24
80 -35 41 -18 190 -72 345 -124 33 -11 67 -23 75 -26 8 -3 17 -6 20 -7 3 -1
12 -4 20 -8 82 -34 397 -130 500 -152 8 -2 60 -16 115 -30 211 -56 331 -86
360 -90 17 -3 66 -12 110 -20 44 -9 96 -18 115 -20 19 -2 55 -9 80 -14 25 -6
72 -15 105 -21 33 -5 71 -12 85 -15 30 -6 101 -16 150 -20 74 -7 136 -16 152
-21 10 -3 30 -7 45 -10 16 -3 36 -7 45 -10 23 -7 45 -11 103 -18 28 -4 57 -9
65 -11 8 -3 31 -7 50 -9 19 -3 44 -7 55 -9 11 -3 52 -8 90 -11 39 -4 86 -9
105 -11 117 -15 208 -19 495 -18 290 0 353 3 465 17 19 3 64 8 100 11 75 7
116 13 145 18 45 9 97 18 133 23 20 2 44 6 52 9 8 2 31 7 50 10 19 3 71 15
115 26 44 11 94 22 110 24 17 2 52 7 78 10 51 7 59 8 142 25 28 5 61 12 75 14
14 3 84 16 155 30 72 15 144 28 160 31 70 12 105 21 415 106 179 48 372 105
430 124 58 20 110 37 115 39 6 1 15 4 20 7 8 5 106 40 125 44 3 1 19 7 35 14
17 6 44 16 60 22 17 6 39 15 50 19 11 5 55 20 98 34 78 26 86 30 144 60 17 9
38 16 46 16 9 0 17 3 19 8 2 4 53 29 113 56 294 131 483 223 593 287 45 27 84
49 86 49 2 0 80 44 174 99 94 54 173 96 176 93 4 -3 6 0 6 6 0 7 7 12 15 12 8
0 15 5 15 10 0 6 7 10 15 10 8 0 15 5 15 10 0 6 4 10 9 10 8 0 267 173 327
219 12 9 30 22 40 29 186 125 338 236 422 310 15 13 43 35 62 50 19 15 40 32
45 38 6 7 80 71 165 144 85 73 179 153 209 179 86 73 294 285 541 551 23 25
65 70 93 100 29 31 70 77 92 104 22 26 49 59 60 71 11 13 34 40 50 61 17 20
35 42 40 48 53 58 533 728 571 796 10 19 22 37 27 38 4 2 7 10 7 17 0 8 6 20
13 27 7 7 18 24 24 38 7 14 23 43 36 65 12 22 38 67 57 100 19 33 43 74 52 90
10 17 28 51 40 78 12 26 25 47 30 47 4 0 8 4 8 10 0 5 13 31 28 57 48 81 104
185 135 248 16 33 50 103 75 155 26 52 47 97 48 100 0 3 10 27 22 53 12 27 22
53 22 58 0 5 9 26 19 47 10 20 19 39 19 42 1 6 16 46 47 125 13 33 45 114 70
180 26 66 52 131 58 145 5 14 11 30 12 35 2 6 18 48 36 95 18 47 33 87 34 90
0 3 3 10 6 15 5 8 10 25 24 75 0 3 9 32 19 65 10 33 19 65 21 70 1 6 5 17 8
25 3 8 11 35 18 60 7 25 14 50 15 55 5 15 22 86 28 115 7 30 22 97 29 125 3
11 15 61 26 110 12 50 26 108 31 130 6 22 12 51 15 65 2 14 13 59 23 100 10
41 19 78 19 83 2 8 20 95 29 137 12 57 14 67 18 100 7 50 13 96 21 165 3 33 8
74 10 90 3 17 7 59 10 95 3 36 8 88 10 115 3 28 7 77 10 110 9 128 16 212 20
250 3 22 7 76 10 120 3 44 9 107 13 140 3 33 6 179 5 325 0 237 -3 323 -17
495 -3 28 -7 95 -11 150 -4 55 -8 116 -10 135 -1 19 -6 73 -10 120 -3 47 -8
105 -10 130 -3 25 -7 74 -10 109 -3 36 -9 81 -14 100 -5 20 -12 59 -16 86 -3
28 -8 64 -11 80 -3 17 -6 41 -8 55 -1 14 -6 31 -10 38 -4 7 -5 12 -3 12 4 0
-21 125 -32 165 -1 3 -3 10 -5 17 -2 7 -10 42 -16 78 -7 36 -16 79 -21 95 -4
17 -22 91 -39 165 -17 74 -32 144 -35 155 -30 127 -47 204 -48 221 -2 16 24
41 105 101 59 44 105 82 103 85 -3 3 6 10 19 18 26 14 241 232 266 270 8 12
20 28 26 34 26 28 125 168 166 236 152 252 240 474 314 793 21 90 34 171 49
302 24 213 20 483 -10 710 -8 66 -30 199 -39 240 -74 338 -173 612 -329 915
-51 99 -164 293 -189 325 -4 6 -29 41 -54 80 -26 38 -53 75 -60 83 -8 7 -14
17 -14 21 0 4 -8 16 -18 27 -9 10 -33 39 -52 64 -153 196 -367 419 -541 560
-23 19 -50 42 -59 50 -8 9 -34 29 -55 45 -53 39 -56 42 -84 65 -13 11 -27 20
-31 20 -3 0 -15 8 -26 18 -19 18 -71 52 -199 134 -83 52 -199 117 -310 171
-44 22 -102 50 -128 63 -27 13 -53 24 -58 24 -6 0 -29 8 -52 19 -54 24 -167
65 -237 86 -30 9 -62 19 -70 22 -8 3 -19 7 -25 9 -132 33 -229 56 -247 58 -13
2 -34 6 -48 9 -57 14 -228 37 -335 44 -160 11 -473 5 -554 -12 -12 -2 -42 -7
-65 -9 -22 -3 -53 -8 -68 -11 -16 -3 -38 -7 -50 -9 -13 -2 -45 -10 -73 -16
-27 -6 -57 -13 -65 -15 -8 -1 -35 -9 -60 -16 -25 -7 -50 -13 -57 -15 -35 -7
-212 -73 -298 -111 -136 -61 -279 -140 -330 -181 -5 -4 -25 -17 -42 -27 -18
-11 -33 -23 -33 -27 0 -4 -6 -8 -14 -8 -7 0 -24 -10 -37 -22 -71 -67 -55 -68
-181 5 -62 36 -192 104 -288 152 -96 47 -184 91 -195 97 -26 15 -61 32 -105
51 -19 8 -57 25 -85 38 -27 12 -52 24 -55 24 -3 1 -23 9 -45 19 -22 9 -50 21
-62 26 -13 6 -33 14 -45 20 -46 20 -83 34 -93 35 -5 1 -32 12 -60 24 -100 45
-195 80 -435 159 -284 93 -330 107 -545 162 -88 23 -194 50 -235 61 -41 11
-86 22 -100 24 -14 3 -106 21 -205 41 -99 19 -196 38 -215 40 -19 3 -57 9 -85
14 -27 6 -79 12 -114 15 -36 4 -67 8 -71 10 -3 2 -30 6 -60 9 -30 3 -65 8 -77
10 -28 6 -142 17 -208 21 -88 5 -219 16 -245 21 -50 8 -746 25 -753 17z m588
-1407 c449 -19 595 -27 700 -40 28 -4 77 -9 110 -11 33 -3 76 -7 95 -10 19 -3
55 -7 80 -10 25 -3 59 -7 75 -9 17 -2 59 -7 95 -11 36 -4 72 -9 80 -10 8 -2
51 -8 95 -15 44 -7 87 -13 95 -15 8 -1 35 -6 60 -10 25 -4 54 -9 65 -11 11 -2
34 -7 50 -10 63 -11 231 -58 271 -76 53 -23 80 -65 93 -145 12 -74 7 -192 -8
-222 -18 -32 -95 -29 -296 13 -11 2 -40 7 -65 11 -25 4 -54 9 -65 11 -11 2
-31 6 -45 9 -14 3 -34 7 -45 9 -23 4 -83 13 -140 21 -23 3 -51 7 -64 10 -13 2
-49 7 -80 10 -31 3 -72 8 -91 10 -19 2 -64 7 -100 11 -36 3 -76 7 -90 9 -95
10 -153 15 -207 20 -35 3 -89 7 -120 10 -160 14 -1343 28 -1367 16 -5 -2 -56
-5 -115 -6 -188 -5 -434 -16 -465 -20 -17 -3 -58 -7 -91 -9 -57 -5 -112 -11
-200 -21 -22 -3 -58 -7 -80 -9 -22 -3 -67 -8 -100 -11 -33 -4 -73 -9 -90 -10
-16 -2 -48 -6 -70 -9 -22 -3 -55 -8 -74 -11 -39 -5 -194 -32 -231 -40 -14 -3
-36 -7 -50 -10 -14 -3 -72 -14 -130 -25 -155 -31 -235 -36 -254 -17 -23 23
-34 89 -30 176 7 154 40 194 194 236 104 29 194 50 256 59 21 4 104 17 184 30
80 14 165 27 190 30 25 3 68 8 95 12 28 3 58 8 68 10 10 2 46 6 80 9 34 3 73
8 87 10 14 2 54 7 90 10 36 3 81 8 101 10 50 6 155 14 274 20 55 2 143 7 195
10 52 3 149 7 214 10 66 3 121 7 122 8 5 4 509 -1 649 -7z m2590 -7151 c218
-11 444 -117 619 -290 102 -100 214 -283 251 -410 9 -33 21 -71 26 -85 36 -98
44 -410 13 -512 -3 -9 -7 -25 -9 -35 -18 -73 -50 -167 -75 -219 -16 -35 -30
-68 -30 -73 0 -6 -3 -11 -8 -11 -4 0 -13 -13 -20 -30 -25 -56 -135 -195 -216
-272 -81 -76 -246 -186 -316 -209 -19 -6 -48 -17 -65 -24 -144 -63 -409 -77
-590 -30 -154 40 -302 116 -398 206 -23 21 -49 41 -57 44 -8 3 -22 16 -30 29
-8 13 -35 47 -60 76 -72 82 -153 234 -183 340 -33 120 -37 135 -42 190 -3 30
-8 75 -11 100 -8 56 -8 40 11 239 2 24 12 69 21 100 9 31 17 61 19 66 31 138
164 367 274 475 126 122 270 222 379 261 31 11 80 29 107 39 49 18 82 24 195
36 30 3 56 7 59 9 2 3 13 3 25 0 12 -3 62 -7 111 -10z m-5662 -29 c20 -3 52
-8 70 -10 99 -14 350 -131 437 -205 107 -92 142 -128 210 -213 43 -54 86 -118
96 -143 11 -25 22 -45 27 -45 4 0 7 -9 7 -20 0 -11 4 -20 8 -20 18 0 89 -240
99 -336 19 -178 -1 -424 -38 -470 -5 -6 -7 -13 -4 -16 15 -14 -106 -270 -153
-324 -15 -17 -45 -54 -67 -82 -22 -28 -48 -54 -58 -57 -9 -4 -15 -11 -12 -16
4 -5 2 -9 -3 -9 -5 0 -22 -12 -38 -26 -73 -64 -258 -170 -314 -180 -14 -3 -36
-9 -50 -14 -43 -16 -113 -32 -155 -36 -68 -6 -209 -6 -235 0 -14 3 -49 9 -78
12 -140 15 -396 137 -508 241 -28 27 -66 62 -85 79 -19 17 -41 41 -49 54 -8
12 -19 28 -25 34 -77 88 -165 254 -201 374 -13 46 -26 87 -29 91 -10 17 -29
189 -29 266 0 94 14 222 29 266 8 21 14 42 14 44 -2 41 111 294 149 333 9 10
30 36 47 58 75 98 195 198 305 255 47 24 87 47 90 50 3 3 37 13 75 24 39 10
78 22 88 27 10 5 53 12 95 15 42 3 78 6 80 8 4 4 165 -3 205 -9z m3172 -3339
c17 -3 57 -8 90 -11 139 -15 157 -17 260 -39 78 -17 135 -27 180 -32 17 -2 49
-8 70 -14 22 -5 54 -12 70 -15 17 -3 46 -11 65 -16 19 -6 46 -13 60 -16 14 -3
57 -15 95 -26 39 -12 75 -23 80 -24 42 -12 250 -90 292 -109 28 -14 54 -25 57
-25 4 0 25 -9 49 -19 23 -11 70 -31 104 -45 34 -14 81 -36 105 -49 24 -13 79
-44 123 -67 90 -49 343 -215 392 -257 17 -16 53 -46 79 -68 71 -59 283 -262
314 -301 153 -192 241 -327 312 -480 43 -96 82 -197 93 -244 2 -8 10 -35 19
-60 24 -72 32 -123 41 -265 3 -55 8 -136 11 -180 2 -44 6 -109 8 -145 12 -211
19 -317 22 -334 2 -12 0 -16 -5 -10 -5 5 -11 29 -15 54 -11 90 -77 298 -128
410 -22 47 -47 101 -56 120 -9 19 -23 46 -32 60 -10 14 -34 52 -55 85 -72 111
-84 130 -108 155 -12 14 -43 52 -69 85 -45 59 -252 266 -315 315 -59 46 -94
75 -116 94 -36 31 -300 203 -363 237 -262 139 -443 219 -679 299 -82 28 -158
52 -170 54 -11 2 -83 20 -159 40 -77 20 -153 38 -170 41 -17 2 -58 9 -91 15
-33 6 -76 13 -95 16 -19 3 -43 7 -52 10 -29 8 -52 12 -123 19 -39 3 -86 8
-105 10 -268 30 -613 34 -920 10 -52 -4 -97 -8 -100 -10 -3 -2 -34 -6 -70 -10
-141 -14 -141 -14 -250 -35 -30 -6 -64 -13 -75 -15 -18 -3 -38 -6 -105 -20
-14 -3 -41 -8 -60 -12 -46 -9 -50 -10 -52 -13 -2 -1 -10 -3 -18 -5 -8 -2 -60
-16 -115 -31 -55 -14 -104 -27 -110 -29 -5 -1 -17 -5 -25 -8 -8 -3 -75 -26
-149 -52 -201 -68 -560 -230 -620 -278 -7 -6 -19 -12 -27 -13 -28 -4 -303
-192 -425 -291 -69 -56 -171 -146 -225 -200 -83 -83 -128 -135 -267 -308 -28
-34 -144 -232 -174 -295 -67 -143 -75 -160 -77 -172 -1 -7 -4 -17 -8 -23 -9
-15 -60 -186 -65 -220 -3 -16 -11 -59 -18 -95 -13 -62 -13 -56 -9 105 4 164
10 331 19 539 4 105 27 235 51 292 8 19 11 34 8 34 -4 0 -2 6 4 13 5 6 13 27
17 46 16 76 160 366 208 419 9 10 17 24 17 30 0 15 158 218 212 271 82 81 227
219 253 241 17 14 55 46 85 71 67 56 185 139 199 139 5 0 11 3 13 8 2 4 35 27
73 52 103 66 108 69 132 80 12 5 53 26 90 48 37 21 120 60 183 86 63 26 138
59 165 72 69 32 346 129 425 149 36 9 72 19 80 22 8 3 18 5 22 5 4 -1 28 5 53
14 25 8 58 17 73 19 15 2 47 7 72 10 56 8 68 10 155 30 39 9 77 18 85 19 28 6
95 16 150 22 30 3 66 7 80 9 14 1 52 6 85 10 33 4 61 8 63 10 5 5 779 -2 807
-8z m1325 -2472 c69 -5 110 -11 150 -22 14 -3 28 -6 32 -5 24 5 211 -64 298
-109 75 -40 85 -46 163 -107 157 -124 250 -299 249 -473 -1 -253 -182 -487
-485 -629 -84 -39 -231 -87 -292 -95 -16 -2 -30 -4 -30 -5 0 -9 -165 -23 -270
-24 -394 -1 -761 160 -928 408 -46 68 -84 159 -94 221 -6 41 -6 158 0 185 20
85 59 175 105 243 26 38 131 147 141 147 5 0 11 4 13 9 5 14 129 94 194 125
32 16 71 35 86 42 14 8 35 14 45 14 10 0 23 4 29 9 8 8 126 38 219 56 17 3 71
8 120 12 50 3 91 6 92 7 3 3 71 -1 163 -9z m-3200 -19 c169 -26 298 -65 425
-128 358 -179 518 -484 413 -787 -12 -37 -25 -68 -28 -71 -3 -3 -11 -17 -19
-32 -8 -15 -22 -37 -33 -47 -10 -11 -18 -23 -18 -26 0 -16 -130 -132 -198
-177 -93 -61 -221 -120 -312 -143 -77 -20 -136 -33 -139 -30 -2 3 -11 0 -20
-4 -9 -5 -61 -12 -116 -16 -55 -4 -103 -9 -107 -11 -4 -2 -9 0 -13 6 -4 6 -12
7 -18 3 -16 -10 -146 -2 -222 13 -11 3 -36 7 -55 10 -92 13 -245 67 -350 122
-205 107 -365 284 -406 447 -4 17 -9 37 -11 45 -10 40 -9 152 3 210 16 78 63
178 113 240 40 50 117 130 126 130 3 0 19 12 35 26 35 31 43 36 147 88 43 21
87 43 97 49 21 10 177 56 216 64 152 28 371 36 490 19z m4867 -391 c0 -8 -4
-12 -9 -9 -5 3 -6 10 -3 15 9 13 12 11 12 -6z"/>
</g>
</svg>
